<?xml version="1.0" encoding="utf-8"?>
<!-- Generator: Adobe Illustrator 25.1.0, SVG Export Plug-In . SVG Version: 6.00 Build 0)  -->
<svg version="1.1" id="Capa_1" xmlns="http://www.w3.org/2000/svg" xmlns:xlink="http://www.w3.org/1999/xlink" x="0px" y="0px"
	 viewBox="0 0 595.28 841.89" style="enable-background:new 0 0 595.28 841.89;" xml:space="preserve">
<style type="text/css">
	.st0{fill:#221F20;}
	.st1{fill:#878585;}
	.st2{fill:#ACAAAB;}
	.st3{fill:#4C494A;}
	.st4{fill:#FFFFFF;}
	.st5{fill:#FEFEFE;}
	.st6{fill:#FFFEFF;}
	.st7{fill:#232021;}
</style>
<g>
	<path class="st0" d="M150.13,322.52c-0.04-10.87-0.1-21.75-0.11-32.62c-0.01-5.11,0.07-10.22,0.11-15.33
		c0.82-0.45,1.7-0.23,2.55-0.23c93.86-0.01,187.72-0.01,281.57-0.01c3.3,0,2.93-0.34,2.93,2.97c0.01,14.19,0.01,28.37,0,42.56
		c0,0.89,0.15,1.79-0.15,2.67c-0.83,0.42-1.71,0.21-2.56,0.21c-93.93,0.01-187.86,0.01-281.79,0
		C151.83,322.75,150.94,322.97,150.13,322.52z"/>
	<path class="st0" d="M317.54,260.36c-0.02,0.26-0.07,0.9-0.53,1.4c-0.74,0.82-2.07,0.71-2.45,0.69
		c-2.99-0.16-41.05-0.02-43.93-0.01c-1.4,0-2.05-0.16-2.04-1.92c0.08-14.75-0.39-29.53,0.19-44.26c0.41-10.54,2.75-20.84,6.4-30.85
		c4.7-12.91,8.83-26.04,13.12-39.1c0.5-1.51,1.14-2.03,2.65-1.96c2.28,0.11,4.57,0.05,6.85-0.07c0.29-0.01,0.81-0.02,1.35,0.28
		c0.67,0.37,0.98,1.02,1.13,1.37c8.58,20.43,12.35,37.28,12.35,37.28c2.59,11.57,3.41,13.96,4.2,20.63
		c0.62,5.19,0.37,5.78,0.9,13.93C317.74,217.79,319.07,237.99,317.54,260.36z"/>
	<path class="st0" d="M262.63,143.51c-5.41,5.85-9.47,12.77-14.08,19.25c-0.59,0.84-1,1.84-1.39,2.81
		c-2.89,7.2-5.75,14.41-8.64,21.6c-3.07,7.63-3.89,15.89-6.2,23.73c-2.92,9.94-3.1,20.21-3.76,30.43
		c-0.43,6.75-0.89,13.5-1.27,20.25c-0.07,1.24-0.25,1.84-1.69,1.83c-9.84-0.07-19.68-0.11-29.53,0.02
		c-2.09,0.03-1.62-1.16-1.48-2.29c1.18-9.61,2.38-19.22,3.58-28.83c2.62-20.99,11.97-38.75,25.23-54.33
		c4.95-5.82,11.21-10.45,16.92-15.57c7.26-6.5,14.56-12.95,21.84-19.42C262.65,142.87,262.79,143.05,262.63,143.51z"/>
	<path class="st0" d="M322.89,140.82c3.66,3.26,7.32,6.52,10.98,9.79c9.36,8.36,18.85,16.56,28.02,25.13
		c6.3,5.89,10.75,13.36,14.91,20.96c5.16,9.44,9.55,19.24,11.27,30.05c1.06,6.66,1.73,13.39,2.57,20.09
		c0.56,4.52,0.97,9.07,1.7,13.56c0.32,2.01,0.1,2.66-2.05,2.63c-9.37-0.12-18.74-0.14-28.11,0.02c-2.21,0.04-2.57-0.8-2.68-2.75
		c-0.71-12.53-1.29-25.07-2.39-37.56c-0.62-7.03-3.18-13.74-4.45-20.68c-2.48-13.57-8.2-25.93-13.71-38.26
		c-3.08-6.9-8.01-13.01-13.05-18.75c-1.13-1.28-2.25-2.56-3.38-3.85C322.64,141.07,322.77,140.95,322.89,140.82z"/>
	<path class="st0" d="M161.93,263.7c-4.45,0-8.76-0.02-13.07,0.02c-0.88,0.01-1.28-0.38-1.51-1.18
		c-4.54-15.88-9.17-31.73-13.56-47.66c-1.11-4.04-1.57-8.3-2.14-12.48c-0.96-7.06,3.46-14.29,9.86-16.86
		c11.74-4.72,24.04-7.38,36.14-10.77c7.4-2.08,14.85-4.01,22.56-6.09c-0.49,1.2-1.39,1.3-2.05,1.64
		c-11.35,5.73-22.71,11.41-34.06,17.15c-8.41,4.25-12.58,11.47-14.04,20.88c-1.14,7.37,1.5,13.96,3.15,20.77
		c2.7,11.1,5.62,22.15,8.45,33.22C161.76,262.73,161.81,263.12,161.93,263.7z"/>
	<path class="st0" d="M386.29,168.19c4.46,1.2,8.92,2.4,13.38,3.6c11.46,3.09,22.99,5.95,34.35,9.39c5.5,1.66,11.34,2.86,15.89,6.95
		c4.59,4.13,6.19,9.17,5.22,15.51c-2.74,17.91-9.13,34.76-13.73,52.12c-0.54,2.04-1.17,4.04-1.7,6.08c-0.28,1.1-0.82,1.5-1.97,1.47
		c-3.62-0.09-7.24-0.12-10.86,0c-1.75,0.06-1.87-0.43-1.44-2.06c3.79-14.59,7.83-29.12,11.08-43.83
		c2.46-11.17-1.81-24.38-13.21-30.12c-12.39-6.23-24.79-12.48-37.18-18.71C386.17,168.47,386.23,168.33,386.29,168.19z"/>
	<path class="st0" d="M279.38,93.29c4.48-3.28,8.97-6.55,13.42-9.87c0.74-0.55,1.22-0.36,1.86,0.08c4.69,3.24,9.4,6.46,14.07,10.15
		c-1.97,0-3.95,0.12-5.91-0.04c-1.73-0.14-2.21,0.53-1.99,2.2c0.14,1.04,0.12,2.12,0.08,3.17c-0.13,3.73,0.67,6.54,3.84,9.29
		c7.37,6.38,7.45,17.85,0.88,25.05c-6.52,7.15-17.51,7.38-24.34,0.52c-6.86-6.9-6.99-18.09-0.28-25.2c0.72-0.76,1.43-1.67,2.45-1.83
		c1.91-0.3,2.32-1.42,2.3-3.22c-0.03-2.68,0.13-5.38,0.33-8.05c0.09-1.25-0.18-1.8-1.49-1.73c-1.7,0.09-3.4,0.02-5.1,0.02
		C279.45,93.64,279.42,93.46,279.38,93.29z"/>
	<path class="st0" d="M338.32,262.71c-2.36,0-4.73-0.1-7.09,0.03c-1.71,0.1-2.29-0.26-2.15-2.25c0.53-7.56,0.98-15.13,1.09-22.71
		c0.18-12.9-0.45-25.75-2.45-38.49c-0.31-1.98,0.34-2.17,1.87-1.95c2.5,0.35,5,0.68,7.28,1.88c4.34,2.3,7.2,5.54,8.04,10.9
		c2.27,14.41,1.87,28.93,2.25,43.42c0.06,2.44,0.04,4.9,0.3,7.33c0.18,1.66-0.44,1.92-1.81,1.87
		C343.21,262.65,340.77,262.71,338.32,262.71z"/>
	<path class="st0" d="M248.69,263.02c-2.6,0-5.19-0.05-7.79,0.02c-1.12,0.03-1.51-0.3-1.43-1.51c0.98-15.19-0.14-30.48,1.87-45.63
		c0.38-2.9,0.8-5.8,1.44-8.65c0.56-2.48,2.38-4.16,4.22-5.69c3.12-2.58,6.81-3.52,10.72-3.86c1.7-0.14,1.75,0.62,1.53,1.94
		c-2.47,14.92-2.71,29.98-2.29,45.06c0.15,5.45,0.53,10.9,0.93,16.34c0.12,1.66-0.37,2.08-1.9,2
		C253.57,262.93,251.12,263.03,248.69,263.02z"/>
	<path class="st0" d="M452.97,368.08c0-4.7-0.05-9.41,0.03-14.11c0.02-1.41-0.59-1.51-1.69-1.59c-0.99-0.07-2.57,0.81-2.89-0.55
		c-0.39-1.69-0.1-3.56,0-5.35c0.02-0.42,0.63-0.37,1.01-0.37c4.41,0,8.82,0.03,13.23-0.02c1.09-0.01,1.38,0.46,1.3,1.46
		c-0.04,0.49-0.01,0.98-0.01,1.47c0,3.32,0,3.44-3.11,3.36c-1.67-0.05-1.69,0.75-1.69,2.04c0.04,8.72-0.04,17.45,0.07,26.17
		c0.02,1.89-0.58,2.02-2.2,2.28c-4.38,0.7-6.69-1.19-8.67-5.15c-3.59-7.19-7.76-14.07-11.71-21.12c-0.8,0.58-0.44,1.28-0.44,1.84
		c-0.04,5.22,0.03,10.44-0.05,15.65c-0.03,1.52,0.42,2.15,1.86,1.88c2.22-0.42,2.97,0.6,2.64,2.78c-0.09,0.64-0.08,1.31,0,1.95
		c0.17,1.36-0.47,1.62-1.64,1.6c-4.09-0.06-8.19-0.05-12.28,0c-1.09,0.01-1.64-0.27-1.5-1.49c0.07-0.56,0.09-1.15,0-1.71
		c-0.41-2.53,0.53-3.61,3.01-3.13c1.58,0.31,1.77-0.54,1.75-1.92c-0.06-6.44-0.12-12.88,0.03-19.32c0.05-2.07-0.67-2.47-2.4-2.34
		c-0.76,0.06-2.12,0.57-2.26-0.52c-0.22-1.8-0.47-3.72,0.21-5.5c0.09-0.23,0.85-0.23,1.31-0.24c3.86-0.02,7.72,0.05,11.57-0.04
		c1.27-0.03,1.78,0.63,2.33,1.6c3.53,6.24,7.09,12.45,10.65,18.68c0.36,0.62,0.73,1.24,1.09,1.86
		C452.67,368.17,452.82,368.12,452.97,368.08z"/>
	<path class="st0" d="M251.62,444.75c-2.52,0-5.04-0.07-7.55,0.03c-1.36,0.05-1.88-0.44-1.7-1.81c0.04-0.32,0.01-0.65,0.01-0.98
		c0-3.42,0-3.5,3.26-3.51c1.4,0,1.7-0.53,1.69-1.85c-0.05-6.6-0.09-13.2,0.02-19.8c0.03-1.76-0.65-2-2.07-1.97
		c-0.94,0.02-2.46,0.66-2.74-0.52c-0.39-1.69-0.19-3.56-0.04-5.33c0.05-0.63,0.93-0.41,1.45-0.41c7,0,14.01-0.07,21.01,0.05
		c4.78,0.08,8.23,2.94,9.38,7.41c1.19,4.63-0.3,8.71-4.35,11.36c-1.15,0.75-1.25,1.26-0.55,2.4c1.31,2.12,2.57,4.28,3.64,6.54
		c0.81,1.72,1.92,2.43,3.7,2.09c1.63-0.31,2.13,0.34,2.09,2.08c-0.1,4.22-0.05,3.81-4.09,4.33c-4.97,0.64-7.85-1.14-9.55-5.96
		c-0.9-2.56-2.77-4.74-3.8-7.27c-0.85-2.07-2.2-2.15-3.94-2.08c-0.97,0.04-1.19,0.44-1.16,1.32c0.05,1.3,0.01,2.61,0.01,3.91
		c0,3.36,0,3.41,3.16,3.62c0.9,0.06,1.32,0.29,1.2,1.25c-0.02,0.16-0.01,0.33,0,0.49c0.12,4.6,0.12,4.6-4.35,4.6
		C254.77,444.75,253.2,444.75,251.62,444.75z"/>
	<path class="st0" d="M202.78,346.12c3.28,0.2,7.3-0.33,11.3,0.3c4.4,0.69,7.16,3.34,8.17,7.92c0.91,4.1-0.51,8.06-4.05,10.39
		c-1.47,0.97-1.76,1.66-0.74,3.13c0.92,1.31,1.69,2.75,2.39,4.2c1.19,2.47,2.37,4.83,5.72,3.93c0.79-0.21,1.16,0.27,1.1,1.1
		c-0.01,0.08,0,0.16,0,0.24c0.38,4.95,0.33,4.54-4.44,5.06c-4.7,0.52-7.37-1.15-9.09-5.59c-1.1-2.84-3.01-5.34-4.24-8.14
		c-0.94-2.13-2.54-1.63-3.98-1.5c-1.64,0.15-0.7,1.66-0.84,2.55c-0.15,0.95,0.08,1.97-0.06,2.93c-0.36,2.51,0.27,3.9,3.04,3.34
		c1.01-0.21,1.3,0.36,1.38,1.38c0.37,4.92,0.41,4.92-4.3,4.92c-3.94,0-7.88-0.12-11.81,0.05c-1.88,0.08-2.37-0.59-2.1-2.32
		c0.04-0.24,0.01-0.49,0.01-0.73c0-3.25,0-3.35,3.02-3.27c1.51,0.04,1.81-0.45,1.79-1.92c-0.08-6.52-0.1-13.05,0.01-19.57
		c0.03-1.73-0.43-2.42-2.08-2.09c-2.25,0.45-3.19-0.44-2.75-2.82c0.09-0.47,0.07-0.98,0-1.46c-0.22-1.56,0.29-2.14,1.91-2.07
		C195.44,346.21,198.75,346.12,202.78,346.12z"/>
	<path class="st0" d="M76.96,382.28c-3.31,0-6.62-0.11-9.91,0.05c-1.74,0.08-2.05-0.54-2.01-2.18c0.1-3.98,0.01-4.06,3.86-4.13
		c1.34-0.03,1.51-0.56,1.5-1.73c-0.04-6.68-0.07-13.37,0.02-20.05c0.02-1.61-0.56-1.87-1.92-1.85c-1.12,0.02-2.9,0.7-3.25-0.39
		c-0.51-1.61-0.19-3.54-0.09-5.32c0.05-0.82,0.85-0.54,1.34-0.54c7.23,0.1,14.48-0.34,21.7,0.37c7.47,0.74,13.39,6.94,14.22,14.88
		c0.32,3.02,0.24,6.02-0.62,8.95c-2.19,7.45-7.54,11.66-15.16,11.88c-3.22,0.09-6.45,0.02-9.68,0.02
		C76.96,382.24,76.96,382.26,76.96,382.28z"/>
	<path class="st0" d="M275.58,363.06c5.03,2.9,6.73,6.15,5.87,10.8c-0.81,4.36-3.94,7.24-8.99,7.96
		c-7.12,1.02-14.29,0.24-21.43,0.47c-0.78,0.02-1.15-0.28-1.11-1.13c0.04-0.89,0.11-1.81-0.01-2.68c-0.28-2.04,0.51-2.84,2.44-2.5
		c1.69,0.3,2.09-0.48,2.07-2.16c-0.09-6.43-0.1-12.87,0-19.3c0.03-1.78-0.57-2.37-2.15-2.08c-2.04,0.38-2.67-0.56-2.36-2.54
		c0.1-0.64,0.07-1.31,0-1.95c-0.13-1.31,0.24-1.9,1.66-1.86c6.75,0.19,13.52-0.25,20.27,0.36c5.69,0.52,9.4,5.58,8.17,11.28
		C279.49,360.2,277.83,361.75,275.58,363.06z"/>
	<path class="st0" d="M402.03,382.71c-9.63,0.05-16.27-4.68-18.62-13.2c-3.16-11.46,3.95-22.33,15.38-23.6
		c6.78-0.75,13.09,0.21,17.96,5.63c5.17,5.74,6.12,12.61,3.49,19.73c-2.66,7.22-8.31,10.71-15.61,11.43
		C403.77,382.79,402.9,382.71,402.03,382.71z"/>
	<path class="st0" d="M408.31,263.69c-2.2,0-4.4-0.06-6.6,0.02c-1.18,0.05-1.61-0.28-1.7-1.59c-0.54-8.28-1.18-16.55-1.78-24.83
		c-0.31-4.22-0.54-8.44-0.93-12.66c-0.15-1.64,0.05-2.29,1.89-1.97c8.16,1.42,15.43,4.77,21.73,10.35c0.67,0.59,0.94,1.12,0.76,2.07
		c-1.68,8.93-3.35,17.85-4.91,26.8c-0.25,1.45-0.73,1.89-2.1,1.82C412.56,263.61,410.44,263.69,408.31,263.69z"/>
	<path class="st0" d="M178.54,264c-1.89,0-3.81-0.22-5.66,0.06c-2.2,0.33-2.59-0.89-2.9-2.66c-1.48-8.4-3-16.78-4.57-25.16
		c-0.25-1.33-0.14-2.26,0.95-3.18c6.36-5.35,13.52-8.74,21.65-10.01c1.75-0.27,1.71,0.32,1.6,1.73
		c-0.92,12.34-1.82,24.69-2.58,37.04c-0.12,1.9-0.7,2.33-2.37,2.22C182.64,263.9,180.59,264,178.54,264z"/>
	<path class="st0" d="M481.84,382.28c-4.57,0-9.13-0.06-13.7,0.04c-1.49,0.03-1.99-0.45-1.8-1.94c0.09-0.72,0.11-1.48,0-2.2
		c-0.29-1.92,0.56-2.52,2.25-2.21c1.67,0.3,2.09-0.41,2.06-2.11c-0.1-6.44-0.1-12.88,0-19.32c0.03-1.72-0.45-2.41-2.09-2.11
		c-1.7,0.31-2.53-0.29-2.22-2.2c0.1-0.63,0.09-1.31,0-1.95c-0.23-1.7,0.38-2.21,2.06-2.2c8.97,0.09,17.95,0.07,26.93,0.01
		c1.47-0.01,2.14,0.28,2.04,1.99c-0.14,2.52-0.03,5.05-0.04,7.58c0,0.47-0.03,0.98-0.22,1.4c-0.17,0.38-5.95,0.45-6.21,0.08
		c-0.49-0.71-0.31-1.58-0.21-2.34c0.25-1.98-0.52-2.53-2.36-2.4c-2.35,0.16-4.72,0.1-7.08,0.01c-1.25-0.05-1.68,0.4-1.62,1.67
		c0.08,1.71,0.1,3.43,0,5.13c-0.08,1.37,0.5,1.69,1.67,1.6c1.1-0.08,2.21-0.07,3.3,0c1.23,0.08,3.17-0.62,3.55,0.32
		c0.61,1.54,0.27,3.49,0.29,5.27c0.01,0.9-0.7,0.69-1.21,0.7c-1.89,0.02-3.78,0.08-5.67-0.02c-1.35-0.07-2.09,0.2-1.94,1.83
		c0.21,2.25-0.87,5.14,0.42,6.61c1.22,1.38,4.02,0.3,6.12,0.43c0.39,0.03,0.79,0,1.18,0c3.12,0,3.19,0,3.27-3.29
		c0.03-1.32,0.48-1.59,1.67-1.63c5.05-0.15,5.09-0.19,5.03,4.95c-0.02,2.02,0.85,4.62-0.36,5.89c-1.21,1.27-3.73,0.34-5.68,0.38
		C488.14,382.33,484.99,382.28,481.84,382.28z"/>
	<path class="st0" d="M295.85,408.59c4.49,0,8.98,0.06,13.46-0.03c1.45-0.03,2.1,0.24,1.99,1.95c-0.16,2.52-0.12,5.06-0.01,7.58
		c0.06,1.44-0.45,1.9-1.75,1.72c-0.54-0.07-1.1-0.01-1.65-0.01c-3.17,0-3.24,0-3.26-3.27c-0.01-1.29-0.38-1.69-1.61-1.65
		c-2.67,0.08-5.35,0.07-8.03,0c-1.05-0.03-1.46,0.35-1.31,1.4c0.01,0.08,0,0.16,0,0.24c-0.25,6.73-0.25,6.83,6.32,6.69
		c2.03-0.04,2.67,0.57,2.36,2.56c-0.1,0.64-0.09,1.31,0,1.95c0.2,1.53-0.39,2.12-1.84,1.87c-0.15-0.03-0.31,0-0.47,0
		c-7.11,0.03-7.2,0.17-6.4,7.64c0.13,1.2,0.68,1.23,1.53,1.22c2.44-0.02,4.89-0.11,7.32,0.03c1.6,0.09,2.42-0.33,2.09-2.11
		c-0.44-2.37,0.47-3,2.75-2.88c3.92,0.22,3.98,0.06,3.91,4.08c-0.05,2.33,1,5.43-0.44,6.78c-1.24,1.15-4.18,0.39-6.37,0.4
		c-7.24,0.02-14.49-0.05-21.73,0.05c-1.81,0.03-2.65-0.41-2.34-2.4c0.1-0.64,0.09-1.31,0-1.95c-0.2-1.56,0.31-2.3,1.9-2.01
		c2.03,0.38,2.45-0.6,2.41-2.56c-0.12-6.28-0.1-12.56-0.01-18.83c0.03-1.69-0.41-2.45-2.08-2.15c-1.73,0.31-2.51-0.35-2.22-2.23
		c0.1-0.64,0.09-1.31,0-1.95c-0.24-1.68,0.33-2.22,2.02-2.17C286.87,408.67,291.36,408.59,295.85,408.59z"/>
	<path class="st0" d="M350.21,366.77c1.82,0.85,3.56,1.77,5.38,2.48c1.25,0.49,1.21,1.15,0.8,2.24
		c-2.51,6.72-7.22,10.46-14.11,11.18c-3.06,0.32-6.14,0.19-9.14-0.62c-8.75-2.37-13.8-11.26-12.28-21.04
		c2.4-15.47,18.96-18.15,27.16-13.01c0.4,0.25,0.81,0.48,1.25,0.74c0.71-0.76-0.33-2.32,0.74-2.5c1.68-0.27,3.45-0.11,5.17,0.02
		c0.49,0.04,0.4,0.8,0.4,1.28c0.01,3.26-0.05,6.52,0.03,9.78c0.03,1.25-0.47,1.45-1.53,1.49c-2.53,0.11-4.53,0.05-6.2-2.81
		c-2.2-3.75-6.11-4.21-10.08-3.13c-4.27,1.15-6.27,4.45-7.05,8.58c-0.47,2.46-0.47,5.02,0.35,7.49c1.38,4.17,4.51,6.78,8.45,7.01
		c4.14,0.25,7.64-1.92,9.46-5.92C349.47,369.01,349.79,367.92,350.21,366.77z"/>
	<path class="st0" d="M288.53,363.46c0-2.94-0.12-5.88,0.04-8.8c0.1-1.87-0.48-2.56-2.22-2.23c-1.65,0.32-2.1-0.37-2.06-2.08
		c0.1-4.23,0.01-4.23,4.05-4.23c3.54,0,7.09,0.07,10.63-0.03c1.51-0.05,2.21,0.34,1.97,2.01c-0.1,0.72-0.1,1.48,0,2.2
		c0.22,1.64-0.25,2.48-1.99,2.15c-1.2-0.23-1.42,0.43-1.41,1.53c0.05,5.71-0.01,11.42,0.08,17.12c0.05,3.22,1.6,4.82,4.38,4.88
		c2.98,0.06,4.74-1.43,4.84-4.69c0.18-5.86,0.07-11.74,0.13-17.61c0.01-1.22-0.65-1.35-1.5-1.22c-1.51,0.22-2-0.33-1.98-1.97
		c0.06-4.35-0.02-4.35,4.22-4.35c2.76,0,5.51,0.05,8.27-0.02c1.11-0.03,1.62,0.3,1.49,1.5c-0.07,0.65-0.1,1.32,0,1.95
		c0.37,2.27-0.33,3.37-2.7,2.88c-1.41-0.29-1.66,0.47-1.65,1.78c0.06,5.79,0.03,11.58,0.02,17.37c-0.01,6.57-2.45,9.78-8.69,10.94
		c-3.19,0.59-6.41,0.42-9.54-0.74c-4.01-1.49-6.08-4.49-6.31-8.79c-0.17-3.17-0.03-6.36-0.03-9.54
		C288.56,363.46,288.54,363.46,288.53,363.46z"/>
	<path class="st0" d="M171.68,346.12c4.64,0,9.29,0.07,13.93-0.04c1.6-0.04,1.98,0.49,1.94,2.07c-0.11,3.58-0.11,7.17,0,10.76
		c0.05,1.52-0.37,1.9-1.83,1.89c-4.1-0.04-4.1,0.04-4.1-4.15c0-0.16,0-0.33,0-0.49c0-3.79-0.92-4.5-4.55-3.74
		c-0.91,0.19-0.9,0.71-0.9,1.38c0,6.93,0.02,13.86-0.02,20.79c-0.01,1.06,0.31,1.49,1.34,1.41c0.7-0.06,1.42,0.05,2.12-0.02
		c1.27-0.14,1.77,0.23,1.79,1.7c0.07,4.62,0.14,4.62-4.34,4.62c-4.41,0-8.82-0.06-13.22,0.03c-1.45,0.03-2.26-0.25-1.97-1.95
		c0.07-0.4,0.01-0.81,0.01-1.22c0-3.15,0-3.24,3.15-3.13c1.54,0.05,2.18-0.2,2.15-2.04c-0.12-6.52-0.16-13.04,0.01-19.56
		c0.06-2.27-1.12-2.08-2.45-1.95c-1.27,0.12-3.28-0.86-2.92,1.95c0.08,0.64,0.01,1.3,0.01,1.95c0,4.8-0.33,5.05-5.04,4.43
		c-0.86-0.11-1.02-0.44-1.01-1.21c0.02-4.08,0.05-8.15-0.01-12.23c-0.02-1.48,0.9-1.22,1.73-1.22
		C162.23,346.12,166.96,346.12,171.68,346.12z"/>
	<path class="st0" d="M326.83,414.74c1.86,3.16,3.43,5.82,5.17,8.77c1.74-2.89,3.33-5.53,4.9-8.15c-0.24-0.22-0.33-0.36-0.45-0.4
		c-0.91-0.34-2.45,0.59-2.72-0.63c-0.37-1.69-0.15-3.55-0.03-5.33c0.04-0.52,0.77-0.4,1.23-0.4c4.25-0.01,8.5,0.04,12.74-0.03
		c1.18-0.02,1.53,0.41,1.41,1.54c-0.06,0.56-0.09,1.15,0,1.71c0.42,2.52-0.52,3.56-2.99,3.1c-1.05-0.2-1.7,0.29-2.28,1.26
		c-1.32,2.21-2.58,4.51-4.23,6.44c-3.49,4.08-4.37,8.75-3.91,13.99c0.13,1.49,0.45,1.98,1.89,1.88c0.96-0.07,2.6-0.54,2.8,0.34
		c0.41,1.76,0.18,3.71,0.06,5.57c-0.03,0.52-0.79,0.36-1.24,0.36c-5.35,0.01-10.7-0.02-16.05,0.03c-1.09,0.01-1.64-0.27-1.49-1.49
		c0.06-0.48,0.01-0.98,0.01-1.47c0-3.29,0-3.36,3.12-3.35c1.33,0.01,1.92-0.37,1.71-1.77c-0.01-0.08-0.01-0.16,0-0.24
		c0.71-5.27-0.53-9.89-4.07-13.86c-1.27-1.42-2.32-3.09-3.28-4.76c-1.16-2.01-2.43-3.53-4.99-2.95c-0.98,0.22-1.32-0.31-1.4-1.37
		c-0.37-4.93-0.4-4.93,4.32-4.93c3.85,0,7.71,0.04,11.56-0.03c1.19-0.02,1.8,0.25,1.59,1.59c-0.06,0.4-0.02,0.81-0.01,1.22
		C330.32,413.54,330.64,415.88,326.83,414.74z"/>
	<path class="st0" d="M135.75,379.52c-0.85,0.87,0.3,2.42-0.88,2.63c-1.6,0.29-3.29,0.15-4.93,0.02c-0.76-0.06-0.49-0.9-0.49-1.42
		c-0.02-3.02,0.04-6.03-0.04-9.05c-0.04-1.33,0.45-1.75,1.65-1.63c0.7,0.07,1.42,0.08,2.12,0c1.47-0.17,2.2,0.17,2.43,1.97
		c0.33,2.62,2.52,4.31,4.92,4.4c1.79,0.07,3.09-0.77,3.72-2.42c0.67-1.75,0.33-3.46-1.23-4.55c-1.55-1.08-3.24-1.97-4.91-2.86
		c-1.89-0.99-3.77-2.01-5.47-3.33c-3.53-2.74-4.59-7.93-2.53-12.33c1.84-3.93,6.4-6.1,10.49-5c1.65,0.45,2.91,1.48,3.99,2.89
		c0.78-0.85-0.26-2.4,0.77-2.6c1.59-0.3,3.29-0.17,4.92-0.03c0.64,0.06,0.47,0.92,0.48,1.47c0.01,2.53-0.07,5.06,0.04,7.58
		c0.06,1.38-0.5,1.66-1.64,1.57c-0.86-0.07-1.74-0.09-2.59,0c-1.12,0.13-1.57-0.34-1.97-1.43c-0.94-2.58-3.38-3.96-5.57-3.37
		c-1.21,0.33-2.2,1-2.48,2.34c-0.27,1.24,0.33,2.23,1.24,2.97c1.3,1.07,2.85,1.69,4.36,2.37c2.08,0.94,4.17,1.89,6.03,3.24
		c3.96,2.87,4.92,7.01,4.22,11.64c-0.66,4.33-3.32,6.92-7.37,7.87C141.43,383.33,138.15,382.72,135.75,379.52z"/>
	<path class="st0" d="M507.64,379.38c-0.65,1.07,0.37,2.56-0.79,2.8c-1.59,0.32-3.29,0.13-4.93,0.01c-0.56-0.04-0.39-0.79-0.39-1.25
		c-0.01-3.09,0.03-6.19-0.02-9.28c-0.02-1.12,0.28-1.68,1.46-1.56c0.78,0.08,1.58,0.08,2.36,0c1.35-0.14,2,0.15,2.25,1.83
		c0.41,2.82,2.54,4.5,5.05,4.54c1.77,0.03,3.04-0.79,3.68-2.48c0.65-1.71,0.27-3.28-1.14-4.36c-1.25-0.96-2.64-1.74-4.04-2.46
		c-2.31-1.2-4.64-2.37-6.68-4.02c-3.36-2.71-4.32-7.88-2.33-12.18c1.82-3.91,6.36-6.05,10.47-5c1.67,0.43,2.85,1.57,4,2.8
		c0.79-0.77-0.29-2.34,0.89-2.53c1.61-0.26,3.3-0.14,4.93,0.02c0.64,0.06,0.44,0.94,0.44,1.48c0.02,2.52-0.04,5.05,0.03,7.57
		c0.03,1.16-0.31,1.64-1.46,1.54c-0.86-0.08-1.74-0.1-2.59,0c-1.29,0.15-1.86-0.31-2.3-1.65c-0.78-2.38-3.37-3.74-5.47-3.15
		c-1.18,0.33-2.23,0.92-2.48,2.31c-0.24,1.34,0.31,2.45,1.37,3.13c1.33,0.84,2.77,1.5,4.17,2.23c1.95,1.03,4.01,1.89,5.84,3.12
		c4.22,2.85,5.17,7.18,4.38,11.99c-0.69,4.23-3.38,6.7-7.3,7.64C513.45,383.34,510.17,382.7,507.64,379.38z"/>
	<path class="st0" d="M115.95,382.28c-2.75,0-5.51-0.06-8.26,0.03c-1.23,0.04-1.74-0.34-1.56-1.63c0.06-0.4,0.01-0.81,0.01-1.22
		c0-3.45,0-3.53,3.32-3.45c1.49,0.04,2-0.31,1.97-1.97c-0.1-6.52-0.11-13.04,0-19.56c0.03-1.81-0.56-2.18-2.13-2.09
		c-1.02,0.05-2.7,0.68-3-0.4c-0.46-1.65-0.18-3.55-0.06-5.33c0.05-0.78,0.87-0.51,1.37-0.51c5.59-0.02,11.18,0.02,16.76-0.04
		c1.28-0.01,1.71,0.46,1.57,1.71c-0.05,0.4-0.01,0.81-0.01,1.22c0,3.39-0.01,3.54-3.15,3.36c-1.99-0.11-2.31,0.67-2.29,2.49
		c0.1,6.27,0.11,12.55-0.01,18.83c-0.03,1.82,0.4,2.48,2.21,2.32c1.02-0.09,2.71-0.66,3.03,0.43c0.48,1.65,0.28,3.55,0.12,5.33
		c-0.07,0.81-1.05,0.49-1.63,0.49C121.46,382.29,118.7,382.28,115.95,382.28z"/>
	<path class="st0" d="M237.38,382.28c-2.75,0-5.51-0.06-8.26,0.03c-1.25,0.04-1.73-0.37-1.55-1.64c0.05-0.4,0.01-0.81,0.01-1.22
		c0-3.44,0-3.52,3.33-3.44c1.5,0.04,1.99-0.34,1.97-1.98c-0.1-6.52-0.11-13.04,0.01-19.56c0.03-1.82-0.58-2.16-2.14-2.09
		c-1.02,0.05-2.7,0.69-3-0.41c-0.45-1.65-0.18-3.55-0.05-5.33c0.05-0.77,0.87-0.5,1.37-0.5c5.59-0.02,11.18,0.02,16.76-0.04
		c1.29-0.01,1.7,0.48,1.56,1.71c-0.04,0.4-0.01,0.81-0.01,1.22c0,3.38,0,3.48-3.16,3.36c-1.7-0.07-2.32,0.32-2.29,2.24
		c0.12,6.35,0.12,12.72,0,19.07c-0.03,1.83,0.42,2.46,2.22,2.32c1.02-0.08,2.7-0.67,3.02,0.43c0.48,1.65,0.24,3.55,0.12,5.33
		c-0.05,0.7-0.89,0.48-1.41,0.49C243.04,382.29,240.21,382.28,237.38,382.28z"/>
	<path class="st0" d="M369.38,382.28c-2.83,0-5.67-0.04-8.5,0.02c-1.07,0.02-1.66-0.22-1.48-1.46c0.05-0.32,0.01-0.65,0.01-0.98
		c-0.01-3.78-0.01-3.87,3.63-3.86c1.4,0,1.66-0.5,1.65-1.81c-0.06-6.6-0.08-13.2,0.01-19.81c0.02-1.63-0.44-2.04-1.96-2
		c-3.33,0.08-3.2-0.01-3.37-3.63c-0.1-2.1,0.38-2.78,2.54-2.7c5.03,0.19,10.07,0.14,15.11,0.02c1.75-0.04,2.51,0.43,2.21,2.29
		c-0.06,0.4-0.07,0.83,0,1.22c0.43,2.38-0.51,3.29-2.77,2.85c-2.19-0.43-2.75,0.54-2.69,2.76c0.15,6.11,0.11,12.23,0.01,18.34
		c-0.03,1.82,0.29,2.7,2.28,2.5c0.99-0.1,2.65-0.72,2.97,0.49c0.45,1.66,0.22,3.55,0.07,5.33c-0.05,0.64-0.92,0.42-1.44,0.43
		C374.89,382.29,372.14,382.28,369.38,382.28z"/>
	<path class="st1" d="M436.92,322.5c0.05-4.4,0.14-8.79,0.15-13.19c0.02-10.6-0.06-21.2,0.06-31.8c0.03-2.31-0.48-2.99-2.82-2.99
		c-94.73,0.07-189.46,0.06-284.18,0.06c0.55-0.92,1.43-0.47,2.14-0.47c94.23-0.02,188.46-0.02,282.69-0.01
		c1.14,0,2.58-0.54,2.56,1.71c-0.09,15.57-0.09,31.13-0.13,46.7C437.23,322.71,437.07,322.7,436.92,322.5z"/>
	<path class="st2" d="M436.92,322.5c0.16,0,0.31,0,0.47,0.01c-0.67,0.87-1.61,0.49-2.42,0.49c-94.14,0.02-188.29,0.02-282.43,0
		c-0.8,0-1.74,0.42-2.41-0.47c94.81,0,189.62,0,284.43,0C435.34,322.52,436.13,322.51,436.92,322.5z"/>
	<path class="st3" d="M262.63,143.51c-0.15-0.18-0.3-0.35-0.45-0.53c0.45-0.6,0.89-1.2,1.34-1.8
		C264.02,142.6,263.27,143.02,262.63,143.51z"/>
	<path class="st4" d="M383.37,314.67c-8.63,0.05-15.82-7.31-15.84-16.24c-0.02-8.93,7.14-16.37,15.75-16.36
		c8.52,0.01,15.59,7.26,15.74,16.14C399.16,307.05,391.97,314.62,383.37,314.67z"/>
	<path class="st4" d="M187.78,298.31c0.04-9.01,7.2-16.38,15.79-16.24c8.72,0.14,15.61,7.44,15.56,16.49
		c-0.05,8.86-7.11,16.11-15.68,16.11C194.79,314.66,187.74,307.31,187.78,298.31z"/>
	<path class="st4" d="M309.09,298.7c0,9-7.12,16.36-15.75,16.28c-8.69-0.07-15.66-7.4-15.63-16.42c0.03-8.86,7.07-16.13,15.64-16.15
		C302.03,282.39,309.09,289.7,309.09,298.7z"/>
	<path class="st5" d="M423.86,298.61c0.05,3.06-2.12,5.45-5.05,5.54c-2.95,0.09-5.46-2.41-5.45-5.44c0.01-2.91,2.42-5.43,5.23-5.47
		C421.42,293.2,423.8,295.63,423.86,298.61z"/>
	<path class="st5" d="M346.75,298.85c-0.05,3.03-2.35,5.34-5.27,5.31c-2.88-0.03-5.19-2.45-5.18-5.44c0-3.04,2.54-5.6,5.42-5.47
		C344.6,293.37,346.8,295.82,346.75,298.85z"/>
	<path class="st5" d="M168.87,304.16c-2.87,0.03-5.27-2.35-5.34-5.32c-0.07-2.98,2.47-5.65,5.35-5.6c2.79,0.04,5.24,2.61,5.24,5.49
		C174.11,301.65,171.72,304.13,168.87,304.16z"/>
	<path class="st5" d="M240.69,298.78c-0.02-2.99,2.33-5.51,5.18-5.54c2.81-0.03,5.3,2.5,5.34,5.43c0.04,2.94-2.36,5.45-5.24,5.48
		C243.02,304.19,240.71,301.83,240.69,298.78z"/>
	<path class="st6" d="M256.35,419.29c0-4.39,0-4.39,2.71-4.39c4.32,0,6.2,1.25,6.2,4.11c-0.01,2.85-2.15,4.03-6.44,4.32
		C254.66,423.61,257.08,420.43,256.35,419.29z"/>
	<path class="st5" d="M204.05,356.78c0-4.35,0-4.35,2.7-4.35c4.35,0,6.21,1.23,6.23,4.12c0.03,3.04-1.88,4.07-6.59,4.31
		C202.38,361.05,204.71,358.03,204.05,356.78z"/>
	<path class="st4" d="M79.42,364.27c0-3.25,0.05-6.51-0.02-9.76c-0.03-1.47,0.19-2.22,1.89-2.13c4.09,0.22,8.21,0.45,10.24,4.92
		c2.26,4.97,2.43,10.07-0.48,14.87c-1.8,2.98-7.32,4.71-10.81,3.79c-1.06-0.28-0.81-1.03-0.82-1.7
		C79.4,370.94,79.42,367.61,79.42,364.27z"/>
	<path class="st6" d="M263.43,371.25c0-0.24-0.09-0.54,0.01-0.72c0.71-1.24-1.66-3.86,1.69-3.92c4.85-0.09,7.01,1.25,7.18,4.6
		c0.14,2.79-1.3,4.38-4.25,4.66C263.43,376.31,263.43,376.31,263.43,371.25z"/>
	<path class="st5" d="M263.31,356.38c0.74-1.39-1.39-4.19,2.27-4c4.04,0.21,5.5,1.07,5.51,3.9c0.01,3.04-1.38,3.88-5.57,4.07
		C261.79,360.53,264.14,357.67,263.31,356.38z"/>
	<path class="st4" d="M392.56,364.27c-0.12-3.65,0.71-6.93,3.47-9.45c4.05-3.71,10.35-3.03,13.55,1.46
		c2.86,4.01,3.07,11.08,0.46,15.27c-2.19,3.51-6.33,5.21-10.28,4.21c-3.82-0.96-6.86-4.88-7.19-9.28
		C392.51,365.74,392.56,365.01,392.56,364.27z"/>
	<path class="st7" d="M390.27,298.85c-0.05,3.89-3.09,6.93-6.82,6.82c-3.64-0.11-6.51-3.17-6.51-6.93c0-3.82,3.07-7,6.73-6.97
		C387.35,291.79,390.32,294.98,390.27,298.85z"/>
	<path class="st7" d="M210.85,298.68c0.03,3.83-3.02,7-6.71,6.99c-3.67-0.01-6.76-3.25-6.71-7.02c0.05-3.68,3.06-6.81,6.62-6.88
		C207.7,291.69,210.82,294.87,210.85,298.68z"/>
	<path class="st7" d="M300.36,298.72c0,3.8-3.1,6.98-6.77,6.95c-3.62-0.03-6.56-3.05-6.62-6.82c-0.06-3.83,2.94-7.05,6.61-7.09
		C297.21,291.72,300.36,294.95,300.36,298.72z"/>
</g>
</svg>
